Coordinates
version=1
nRows=7
nColumns=40
inDegrees=yes

Units are S.I. units (second, meters, Newtons, ...)
If the header above contains a line with 'inDegrees', this indicates whether rotational values are in degrees (yes) or radians (no).

endheader
time	pelvis_tilt	pelvis_list	pelvis_rotation	pelvis_tx	pelvis_ty	pelvis_tz	hip_flexion_r	hip_adduction_r	hip_rotation_r	knee_angle_r	knee_angle_r_beta	ankle_angle_r	subtalar_angle_r	mtp_angle_r	hip_flexion_l	hip_adduction_l	hip_rotation_l	knee_angle_l	knee_angle_l_beta	ankle_angle_l	subtalar_angle_l	mtp_angle_l	lumbar_extension	lumbar_bending	lumbar_rotation	arm_flex_r	arm_add_r	arm_rot_r	elbow_flex_r	pro_sup_r	wrist_flex_r	wrist_dev_r	arm_flex_l	arm_add_l	arm_rot_l	elbow_flex_l	pro_sup_l	wrist_flex_l	wrist_dev_l
      0.14000000	      3.45375594	     -3.97088361	      2.37939292	      0.02310178	      0.94318480	     -0.20052682	     20.95570309	      3.53675647	     -7.19054035	     23.10358598	      0.40323364	     -1.94742400	      0.00000000	      0.00000000	    -12.81102422	     -6.70021022	     -5.31779706	     43.01810413	      0.75080755	    -11.61251133	      0.00000000	      0.00000000	    -15.85995876	      5.93469690	     -6.78599252	    -20.25019111	     -4.94325951	    -17.63850219	     37.13394370	     85.26127580	      3.12711597	     16.30190814	     -4.54568865	     -9.86169108	    -11.77926105	     74.17466151	     87.33178894	     -6.45093299	      4.53479727
      0.15000000	      3.24688083	     -4.56008640	      2.21343345	      0.03999165	      0.94461423	     -0.19924850	     20.41736990	      4.30109629	     -7.01978806	     23.69978866	      0.41363934	     -1.45342412	      0.00000000	      0.00000000	    -10.80610924	     -7.79103469	     -5.46811599	     46.65495010	      0.81428249	    -12.73389124	      0.00000000	      0.00000000	    -15.71590639	      6.55089826	     -6.24609070	    -19.70952370	     -4.83534828	    -17.42799634	     37.82653352	     85.05465316	      3.34423612	     16.22854842	     -5.04313667	     -9.75560460	    -11.31855658	     72.99424930	     87.39120638	     -6.41162858	      4.92297661
      0.16000000	      3.01722778	     -5.07271422	      2.09394326	      0.05650691	      0.94616993	     -0.19807029	     19.77109572	      4.99430824	     -6.84953540	     24.02064303	      0.41923931	     -0.76571230	      0.00000000	      0.00000000	     -8.65046978	     -8.77633323	     -5.41074273	     50.13182902	      0.87496548	    -13.17363534	      0.00000000	      0.00000000	    -15.58473683	      7.09009411	     -5.63794979	    -19.19287056	     -4.68668722	    -17.25433911	     38.69507288	     84.76118975	      3.54783600	     16.08018724	     -5.41891553	     -9.70509390	    -10.62401707	     71.66819337	     87.47371417	     -6.32724620	      5.36100780
      0.17000000	      3.00325866	     -5.44638753	      1.95673956	      0.07269192	      0.94821649	     -0.19669317	     18.76742579	      5.61324165	     -6.50367890	     24.07688192	      0.42022086	      0.14909973	      0.00000000	      0.00000000	     -6.68810626	     -9.59257238	     -5.29348271	     53.26356827	      0.92962464	    -13.10442805	      0.00000000	      0.00000000	    -15.75411321	      7.41450568	     -5.10850599	    -18.54579776	     -4.55967233	    -16.77926402	     39.64873297	     84.59366054	      3.74761402	     15.91014103	     -5.86689581	     -9.71619869	    -10.02163377	     70.46601856	     87.58143452	     -6.24592892	      5.66765679
      0.18000000	      2.65167397	     -5.99569083	      1.96410466	      0.08864237	      0.94983684	     -0.19560527	     18.02172860	      6.34214339	     -6.42383242	     23.85514646	      0.41635085	      0.83644799	      0.00000000	      0.00000000	     -4.21015027	    -10.57961124	     -4.95901010	     56.27221631	      0.98213545	    -12.19230770	      0.00000000	      0.00000000	    -15.47541211	      7.95234501	     -4.50640442	    -17.97601162	     -4.39972386	    -16.51628805	     40.58545327	     84.10243123	      3.96978795	     15.63398477	     -6.10555838	     -9.68857118	     -9.15866971	     68.84937902	     87.70616002	     -6.06917256	      6.10343927
      0.19000000	      2.49293953	     -6.34407086	      1.94048197	      0.10432012	      0.95186871	     -0.19448738	     16.95753540	      6.91281135	     -6.19926170	     23.41911447	      0.40874066	      1.68098730	      0.00000000	      0.00000000	     -1.94237981	    -11.29078767	     -4.61605926	     58.82903574	      1.02676037	    -10.93981037	      0.00000000	      0.00000000	    -15.46796208	      8.23655173	     -3.98026479	    -17.30952725	     -4.29027292	    -16.00950057	     41.65198504	     83.68276513	      4.22440250	     15.30842575	     -6.42299447	     -9.72363566	     -8.34911097	     67.37201764	     87.84088804	     -5.85106779	      6.40100470
      0.20000000	      2.37234936	     -6.61861666	      1.95443859	      0.11988642	      0.95402348	     -0.19341676	     15.76341878	      7.41178453	     -5.96451584	     22.80167067	      0.39796423	      2.47817977	      0.00000000	      0.00000000	      0.28704579	    -11.89294398	     -4.26942948	     60.95515790	      1.06386820	     -9.28770255	      0.00000000	      0.00000000	    -15.49240634	      8.43673152	     -3.52977091	    -16.60419621	     -4.21519968	    -15.39335908	     42.78613373	     83.25450595	      4.47624164	     14.93490531	     -6.77090642	     -9.77048655	     -7.55539441	     65.87715253	     87.98857221	     -5.60815705	      6.65466128
